<?xml version="1.0" encoding="UTF-8"?>
<svg id="_レイヤー_2" data-name="レイヤー 2" xmlns="http://www.w3.org/2000/svg" viewBox="0 0 1382.12 916.27">
  <defs>
    <style>
      .cls-1 {
        fill: #6a7282;
      }
    </style>
  </defs>
  <g id="_饑1" data-name="ﾑ饑1">
    <g>
      <path class="cls-1" d="M949.44,531.7c-112.18,337.8-600.09,196.84-515.13-148.53,117.3,65.59,247.36-64.55,181.79-181.79,200.2-63.26,392.9,129.81,333.34,330.32Z"/>
      <path class="cls-1" d="M949.44,531.7c-112.18,337.8-600.09,196.84-515.13-148.53,117.3,65.59,247.36-64.55,181.79-181.79,200.2-63.26,392.9,129.81,333.34,330.32Z"/>
      <path class="cls-1" d="M1373.77,423.1c-283.89-564.27-1081.71-564.01-1365.42.04-11.13,22.02-11.13,48,0,70.03,283.89,564.27,1081.71,564.01,1365.42-.03,11.13-22.02,11.13-48,0-70.03ZM691.06,803.67c-236.71,0-453.73-131.97-570.92-345.53C366.59-.05,1015.64.1,1261.98,458.13c-117.17,213.56-334.18,345.53-570.92,345.53Z"/>
      <path class="cls-1" d="M949.44,531.7c-112.18,337.8-600.09,196.84-515.13-148.53,117.3,65.59,247.36-64.55,181.79-181.79,200.2-63.26,392.9,129.81,333.34,330.32Z"/>
    </g>
  </g>
</svg>