<?xml version="1.0" encoding="UTF-8"?>
<svg id="_レイヤー_2" data-name="レイヤー 2" xmlns="http://www.w3.org/2000/svg" viewBox="0 0 1535.74 1228.56">
  <defs>
    <style>
      .cls-1 {
        fill: #6a7282;
      }
    </style>
  </defs>
  <g id="_饑1" data-name="ﾑ饑1">
    <g>
      <path class="cls-1" d="M1521.32,1130.18L86.41,8.42c-16.55-13.25-40.71-10.58-53.97,5.97h0s-24,29.97-24,29.97c-13.28,16.56-10.61,40.76,5.97,54.01l1434.91,1121.75c16.55,13.25,40.71,10.58,53.97-5.97l24-29.97c13.28-16.56,10.61-40.76-5.97-54.01Z"/>
      <path class="cls-1" d="M712.18,351.46l323.43,252.86c-3.96-163.86-162.6-288.97-323.43-252.86Z"/>
      <path class="cls-1" d="M823.56,877.12l-323.43-252.86c4,163.86,162.6,288.9,323.43,252.86h0Z"/>
      <path class="cls-1" d="M767.87,268.75c236.71,0,453.73,131.97,570.92,345.53-28.73,52.56-64.22,101.12-105.58,144.45l90.56,70.79c50.42-53.94,93.13-114.59,126.93-180.23,11.13-22.02,11.13-48.02,0-70.04C1289.08,246.5,870.89,61.84,516.81,198.71l111.36,87.08c45.45-10.32,92-17.04,139.7-17.04Z"/>
      <path class="cls-1" d="M767.87,959.81c-236.71,0-453.7-131.97-570.92-345.53,28.77-52.56,64.3-101.11,105.7-144.43l-90.56-70.79c-50.41,53.93-93.12,114.57-126.91,180.2-11.13,22.02-11.13,48.02,0,70.04,161.49,332.81,579.69,517.33,933.75,380.54l-111.36-87.05c-45.45,10.29-91.97,17.01-139.7,17.01Z"/>
    </g>
  </g>
</svg>