<svg width="293" height="44" fill="none" xmlns="http://www.w3.org/2000/svg"><path d="M33.899 11.203l2.213 3.84 5.486-6.336L36.572 0H25.98v11.875h-3.96V0H11.431L.002 19.795h9.139l4.963-8.592v8.592h17.894l1.9-2.194v-6.398z" fill="#3686D0"/><path d="M9.139 23.755H3.427l7.617 3.298-1.905-3.298zm14.289 5.937H17.14l4.57 1.977 1.718-1.977z" fill="#3686D0" fill-opacity=".7"/><path d="M33.897 17.601l-1.901 2.194h1.9V17.6zm4.958 2.194H48L41.596 8.707l-5.486 6.336 2.745 4.752zm.001 3.96l-3.427 5.937h-12l-1.718 1.978 17.37 7.521L48 23.755h-9.144zM17.14 29.692h-4.569l-1.526-2.64-7.618-3.297H0L11.429 43.55 21.71 31.67l-4.57-1.978z" fill="#3686D0" fill-opacity=".6"/><path d="M11.427 43.55h9.14l-3.428-5.943h13.713l-3.427 5.943h9.144l2.51-4.359-17.37-7.521-10.282 11.88z" fill="#3686D0" fill-opacity=".3"/><path d="M93.79 35.087h-3.35v-22.24l-9.51 22.24h-2.84l-9.553-22.269v22.269h-3.351V8.707h5.326L79.51 29.76l9.027-21.054h5.253v26.38z" fill="#3686D0"/><path d="M94.375 35.686h-4.536V15.73l-8.53 19.943h-3.614l-8.56-19.987v19.987H64.6V8.106h6.306l8.603 20.148 8.633-20.148h6.233v27.58zm-3.35-1.185h2.18V9.291h-4.273l-9.423 21.977L70.116 9.29H65.77V34.5h2.18V9.935l10.52 24.551h2.064l10.49-24.522v24.537zm33.724.586h-3.424V23.265h-16.358v11.822h-3.394V8.707h3.394v11.207h16.358V8.707h3.424v26.38z" fill="#3686D0"/><path d="M125.334 35.686h-4.608V23.85h-15.173v11.823h-4.565V8.106h4.565v11.208h15.173V8.106h4.608v27.58zm-3.423-1.185h2.238V9.291h-2.238V20.5h-17.543V9.291h-2.21v25.21h2.21V22.68h17.543v11.822zm15.699 1.493h-4.77v-4.77h4.77v4.77z" fill="#3686D0"/><path d="M138.21 36.58h-5.955v-5.955h5.955v5.955zm-4.77-1.186h3.6v-3.599h-3.6v3.6zm41.435-26.688l-7.097 26.395h-3.789l-5.955-21.99-5.955 21.99h-3.833L141.12 8.706h3.526l5.531 20.513 5.501-20.513h4.638l5.531 20.513 5.575-20.513h3.453z" fill="#3686D0"/><path d="M168.247 35.686h-4.711l-5.501-20.323-5.502 20.323h-4.74l-7.448-27.565h4.755l5.077 18.83 5.048-18.83h5.546l5.077 18.845 5.121-18.845h4.682l-7.404 27.565zm-3.804-1.185h2.897l6.774-25.21h-2.238l-6.028 22.181-5.985-22.18h-3.731l-5.955 22.195-5.984-22.196h-2.297l6.804 25.21h2.941l6.408-23.659 6.394 23.66zm40.617-12.627c0 3.878-1.229 7.184-3.701 9.92-2.473 2.751-5.443 4.112-8.926 4.112-3.496 0-6.496-1.376-8.983-4.112-2.473-2.75-3.702-6.057-3.702-9.92 0-3.848 1.229-7.154 3.702-9.89 2.487-2.722 5.487-4.083 8.983-4.083 3.483 0 6.467 1.361 8.955 4.082 2.458 2.751 3.672 6.043 3.672 9.891zm-3.38.044c0-2.926-.892-5.443-2.692-7.535-1.799-2.078-3.965-3.116-6.496-3.116-2.575 0-4.799 1.053-6.643 3.145-1.829 2.078-2.736 4.58-2.736 7.506 0 2.927.922 5.428 2.766 7.506 1.814 2.078 4.023 3.117 6.598 3.117 2.532 0 4.697-1.04 6.497-3.117 1.799-2.078 2.706-4.58 2.706-7.506z" fill="#3686D0"/><path d="M192.448 36.506c-3.657 0-6.832-1.449-9.422-4.316-2.561-2.839-3.848-6.321-3.848-10.316 0-3.98 1.302-7.447 3.848-10.285 2.604-2.839 5.765-4.273 9.437-4.273 3.643 0 6.804 1.434 9.393 4.272 2.532 2.854 3.819 6.307 3.819 10.286 0 4.01-1.287 7.477-3.848 10.316-2.59 2.867-5.735 4.316-9.379 4.316zm0-28.005c-3.321 0-6.189 1.302-8.559 3.892-2.356 2.62-3.541 5.809-3.541 9.496 0 3.702 1.2 6.906 3.556 9.525 2.355 2.604 5.238 3.921 8.559 3.921 3.292 0 6.145-1.317 8.486-3.921 2.356-2.619 3.556-5.823 3.556-9.525 0-3.687-1.186-6.877-3.512-9.496-2.385-2.59-5.253-3.892-8.545-3.892zm.03 24.625c-2.751 0-5.121-1.112-7.053-3.307-1.931-2.18-2.911-4.828-2.911-7.9 0-3.059.965-5.722 2.882-7.902 1.961-2.224 4.331-3.35 7.082-3.35 2.706 0 5.047 1.112 6.95 3.321 1.887 2.195 2.838 4.872 2.838 7.93s-.951 5.721-2.838 7.887c-1.903 2.194-4.244 3.32-6.95 3.32zm0-21.274c-2.429 0-4.448.966-6.189 2.94-1.712 1.961-2.59 4.346-2.59 7.112 0 2.765.878 5.165 2.619 7.11 1.726 1.961 3.731 2.912 6.16 2.912 2.37 0 4.36-.95 6.057-2.911s2.56-4.346 2.56-7.126c0-2.765-.863-5.18-2.56-7.155-1.697-1.931-3.672-2.882-6.057-2.882zm42.4 23.235h-3.701l-4.843-10.9h-10.901v10.9h-3.394V8.707l13.943-.03c2.137 0 3.98.483 5.531 1.449 2.166 1.331 3.248 3.438 3.248 6.291 0 3.614-1.668 6.013-5.018 7.155l5.135 11.515zm-3.467-18.67c0-2.912-1.815-4.36-5.429-4.36h-10.549v8.72h10.549c3.629 0 5.429-1.463 5.429-4.36z" fill="#3686D0"/><path d="M235.786 35.686h-4.989l-4.843-10.9h-9.92v10.9h-4.565V8.106l14.529-.044c2.253 0 4.214.527 5.853 1.537 2.341 1.448 3.526 3.73 3.526 6.788 0 3.658-1.624 6.175-4.814 7.492l5.223 11.807zm-4.228-1.185h2.414l-5.018-11.266.614-.205c3.102-1.068 4.624-3.233 4.624-6.599 0-2.663-.966-4.565-2.971-5.794-1.448-.907-3.204-1.36-5.223-1.36l-13.344.029v25.21h2.21v-10.9h11.866l4.828 10.885zm-5.575-13.139h-11.134v-9.89h11.134c4.975 0 6.014 2.692 6.014 4.945.015 2.253-1.039 4.945-6.014 4.945zm-9.949-1.185h9.964c4.331 0 4.843-2.15 4.843-3.775 0-1.624-.497-3.76-4.843-3.76h-9.964v7.535zm47.729 14.91h-4.916l-13.49-12.934v12.934h-3.395V8.707h3.395V21.26l12.905-12.553h4.843l-13.344 13.007 14.002 13.373z" fill="#3686D0"/><path d="M265.225 35.686h-6.628l-12.656-12.144v12.144h-4.565V8.106h4.565v11.75l12.071-11.75h6.526L250.579 21.7l14.646 13.987zm-6.145-1.185h3.205l-13.388-12.788 12.744-12.422h-3.146L245.736 21.7l.03.029 13.314 12.773zm-16.519 0h2.21V9.291h-2.21v25.21zm49.79-7.681c0 5.516-2.999 8.267-8.983 8.267h-13.564v-3.395h13.564c1.814 0 3.145-.292 3.979-.863 1.083-.76 1.624-2.092 1.624-4.009 0-2.648-1.726-3.98-5.179-3.98h-5.838c-2.399 0-4.433-.57-6.087-1.697-1.872-1.317-2.794-3.13-2.794-5.457 0-2.56 1.024-4.434 3.072-5.633 1.522-.908 3.292-1.346 5.326-1.346h13.812V12.1h-13.841c-1.492 0-2.692.278-3.555.834-.966.644-1.449 1.566-1.449 2.765 0 1.112.468 2.02 1.419 2.736.937.688 2.312 1.04 4.082 1.04h5.838c2.21 0 4.097.497 5.633 1.492 1.961 1.287 2.941 3.248 2.941 5.852z" fill="#3686D0"/><path d="M283.368 35.686h-14.149v-4.565h14.149c1.682 0 2.911-.248 3.643-.76.922-.644 1.375-1.8 1.375-3.527 0-1.448-.483-3.394-4.594-3.394h-5.838c-2.502 0-4.667-.6-6.423-1.8-2.034-1.434-3.058-3.424-3.058-5.955 0-2.765 1.141-4.843 3.365-6.145 1.61-.951 3.497-1.434 5.619-1.434h14.426v4.565h-14.426c-1.376 0-2.473.249-3.248.732-.791.527-1.171 1.273-1.171 2.268 0 .921.395 1.653 1.185 2.268.834.6 2.092.921 3.731.921h5.838c2.312 0 4.316.527 5.955 1.58 2.136 1.434 3.219 3.57 3.219 6.38-.015 5.882-3.248 8.866-9.598 8.866zm-12.964-1.185h12.964c5.647 0 8.398-2.516 8.398-7.681 0-2.415-.878-4.185-2.677-5.385-1.434-.921-3.219-1.39-5.312-1.39h-5.837c-1.888 0-3.38-.38-4.434-1.155-1.112-.835-1.653-1.917-1.653-3.205 0-1.404.57-2.502 1.712-3.263.98-.614 2.282-.921 3.892-.921h13.241V9.29h-13.241c-1.917 0-3.6.425-5.034 1.273-1.872 1.098-2.779 2.766-2.779 5.121 0 2.151.834 3.775 2.545 4.975 1.537 1.053 3.483 1.58 5.751 1.58h5.837c4.77 0 5.78 2.487 5.78 4.565 0 2.107-.629 3.614-1.873 4.492-.936.658-2.356.966-4.316.966h-12.964V34.5z" fill="#3686D0"/></svg>